<?xml version="1.0" standalone="no"?>
<!DOCTYPE svg PUBLIC "-//W3C//DTD SVG 20010904//EN"
 "http://www.w3.org/TR/2001/REC-SVG-20010904/DTD/svg10.dtd">
<svg version="1.0" xmlns="http://www.w3.org/2000/svg"
 width="400.000000pt" height="400.000000pt" viewBox="0 0 400.000000 400.000000"
 preserveAspectRatio="xMidYMid meet">
<metadata>
Created by potrace 1.14, written by Peter Selinger 2001-2017
</metadata>
<g transform="translate(0.000000,400.000000) scale(0.100000,-0.100000)"
fill="#000000" stroke="none">
<path d="M3762 3941 c-18 -33 -32 -67 -32 -75 0 -8 -8 -28 -17 -45 -17 -29
-17 -31 4 -58 14 -19 28 -27 44 -26 13 2 44 -3 69 -11 37 -11 46 -18 48 -40 4
-28 22 -37 22 -9 0 9 11 31 25 48 19 26 26 50 31 113 4 44 4 92 0 106 -8 32
-60 56 -120 56 -41 0 -43 -1 -74 -59z m91 -51 c11 -89 -13 -125 -76 -113 -24
5 -27 10 -27 42 0 41 41 136 62 143 19 7 34 -20 41 -72z m77 -54 c0 -67 -2
-75 -21 -81 -14 -5 -27 -1 -37 9 -15 14 -15 17 1 28 9 7 23 37 29 66 7 28 16
52 20 52 5 0 8 -33 8 -74z"/>
<path d="M1477 3944 c-27 -15 -28 -18 -23 -71 3 -35 12 -64 24 -77 12 -12 22
-43 26 -76 14 -117 18 -210 10 -211 -30 -2 -49 -10 -68 -27 -12 -12 -43 -22
-76 -26 -119 -15 -382 -31 -393 -24 -8 5 -8 14 1 33 13 28 19 28 170 9 46 -6
142 12 142 26 0 8 -234 4 -296 -6 -17 -2 -41 -15 -54 -29 -13 -14 -35 -25 -49
-25 -26 0 -90 -13 -228 -45 -39 -9 -77 -23 -84 -31 -6 -8 -16 -14 -21 -14 -6
0 -37 -24 -71 -52 -33 -29 -73 -62 -88 -73 -15 -11 -80 -65 -144 -119 -124
-105 -121 -100 -97 -171 11 -29 24 -77 72 -250 41 -153 48 -180 59 -245 7 -36
21 -108 32 -160 11 -52 22 -105 25 -117 4 -19 11 -23 42 -23 41 0 165 23 332
60 118 26 290 49 290 38 0 -3 -48 -26 -107 -53 -174 -78 -271 -124 -386 -181
-60 -30 -115 -54 -123 -54 -16 0 -19 -26 -3 -36 6 -3 9 -18 6 -33 -3 -14 -1
-48 4 -74 5 -26 11 -88 13 -138 5 -82 3 -92 -16 -107 -66 -54 -117 -99 -146
-129 -18 -18 -59 -55 -90 -81 -31 -26 -81 -72 -110 -103 -47 -51 -52 -60 -52
-102 0 -39 3 -47 18 -47 11 0 27 9 37 20 11 12 26 18 35 15 12 -4 35 14 76 61
33 36 65 73 73 81 7 7 12 16 9 18 -2 2 -23 -14 -46 -35 -23 -22 -42 -36 -42
-30 0 5 50 60 111 122 61 62 108 105 105 96 -3 -10 0 -20 5 -24 11 -7 47 28
96 93 16 20 39 48 52 61 l24 25 28 -34 c16 -19 35 -48 44 -66 14 -29 14 -35
-2 -72 -11 -25 -26 -42 -40 -46 -13 -3 -60 -41 -106 -86 -150 -145 -277 -252
-422 -354 -10 -6 -20 -3 -34 9 -23 21 -28 8 -11 -25 7 -13 7 -19 0 -19 -6 0
-10 -31 -10 -77 l0 -78 16 33 c9 17 21 32 26 32 5 0 26 -13 46 -29 36 -28 148
-87 285 -150 38 -18 98 -50 134 -71 36 -22 69 -40 73 -40 4 0 13 -6 19 -14 6
-7 25 -16 41 -20 17 -3 36 -10 43 -16 6 -6 21 -17 32 -25 l20 -15 -20 -16
c-11 -9 -36 -23 -55 -31 -19 -9 -48 -26 -63 -39 l-29 -24 -61 35 c-34 20 -78
44 -97 53 -19 9 -37 20 -40 23 -3 3 -20 12 -37 20 -18 8 -33 17 -33 21 0 5 -6
8 -13 8 -7 0 -28 13 -47 30 -19 16 -41 29 -47 30 -7 0 -13 4 -13 10 0 5 -12
16 -28 24 -15 8 -45 31 -66 50 -22 20 -45 36 -52 36 -7 0 -18 8 -23 18 -10 16
-10 16 -11 0 0 -23 15 -38 130 -124 121 -90 185 -131 285 -183 44 -23 91 -50
104 -60 l24 -19 -21 -36 c-28 -47 -28 -88 0 -173 24 -74 37 -93 64 -93 16 0
16 1 0 19 -12 13 -15 27 -11 42 5 14 4 19 -4 15 -7 -5 -11 2 -11 17 0 14 -7
30 -15 37 -9 8 -15 30 -15 59 0 50 16 80 78 139 70 68 80 24 25 -105 -7 -17
-13 -40 -13 -51 0 -32 -11 -52 -27 -52 -10 0 -13 -6 -8 -17 3 -10 11 -37 18
-60 8 -30 16 -43 29 -43 10 0 18 7 18 15 0 8 5 15 10 15 6 0 10 7 10 15 0 21
18 19 22 -3 2 -9 -3 -22 -12 -29 -12 -10 -8 -12 28 -13 23 0 42 3 42 6 0 3
-11 20 -26 39 -35 46 -28 104 17 151 18 19 36 34 39 34 4 0 12 -12 20 -27 7
-16 18 -39 25 -53 7 -14 16 -43 20 -65 14 -90 10 -85 69 -85 53 0 71 10 112
62 31 40 43 141 25 219 -10 44 -2 61 47 90 20 13 39 26 42 29 4 5 112 70 210
126 31 18 102 52 205 99 105 48 176 84 195 99 8 7 26 18 40 24 14 7 45 25 70
41 70 45 90 39 90 -30 0 -16 6 -38 13 -50 10 -17 9 -22 -8 -34 -53 -37 -183
-135 -237 -180 -66 -54 -128 -103 -223 -174 -33 -24 -71 -55 -85 -67 -14 -13
-47 -42 -75 -64 -27 -23 -70 -60 -95 -83 -25 -23 -55 -47 -65 -53 -11 -7 -16
-16 -12 -20 5 -5 14 -1 21 9 7 9 20 17 28 17 8 0 41 26 74 57 88 84 170 153
184 153 7 0 24 -6 38 -14 15 -7 38 -18 52 -24 43 -17 93 -39 153 -66 32 -14
61 -26 65 -26 4 0 37 -15 72 -34 36 -18 76 -37 90 -41 14 -4 37 -19 52 -33 21
-19 41 -26 84 -29 60 -5 66 6 14 27 -16 7 -30 16 -30 21 0 5 -7 9 -15 9 -8 0
-50 18 -93 39 -100 51 -181 87 -212 95 -34 10 -114 49 -118 59 -2 4 -7 7 -12
7 -5 0 -30 9 -56 20 -46 20 -46 21 -28 38 10 9 45 35 77 56 31 22 57 43 57 48
0 4 4 8 10 8 5 0 20 10 33 22 37 37 86 78 92 78 8 0 161 119 224 174 32 28 71
60 86 71 34 24 135 101 152 115 7 6 33 24 59 41 25 18 107 92 182 165 75 74
138 134 140 134 5 0 104 94 166 156 103 104 279 265 324 296 66 45 78 55 156
128 146 137 207 203 197 213 -7 7 -18 0 -35 -20 -65 -77 -240 -242 -301 -283
-27 -19 -58 -41 -69 -50 -48 -37 -360 -333 -409 -388 -11 -12 -24 -22 -29 -22
-5 0 -65 -56 -133 -124 -69 -68 -157 -148 -196 -177 -138 -106 -228 -174 -255
-194 -15 -11 -33 -26 -40 -32 -21 -22 -24 -15 -24 52 0 65 0 65 35 82 30 15
35 21 35 52 0 52 -11 111 -21 111 -4 0 -9 -26 -11 -57 l-3 -58 -40 -10 c-22
-5 -48 -18 -57 -27 -21 -21 -35 -23 -41 -5 -3 9 -14 6 -43 -9 -151 -82 -185
-101 -229 -129 -27 -17 -57 -34 -65 -38 -8 -4 -46 -27 -85 -51 -85 -53 -240
-131 -277 -140 -15 -3 -38 -17 -50 -30 -41 -43 -128 -82 -128 -58 0 5 14 21
30 37 36 34 37 43 8 47 -23 3 -23 6 -29 188 -6 173 -14 278 -40 525 -6 55 -13
164 -15 242 -1 78 -8 151 -14 162 -5 11 -10 49 -10 85 0 63 1 66 23 66 24 0
57 -27 57 -47 0 -6 7 -13 15 -17 8 -3 15 -10 15 -15 0 -6 21 -30 46 -53 26
-24 62 -68 82 -98 37 -58 152 -198 197 -240 15 -14 42 -49 61 -78 39 -61 61
-73 80 -47 19 25 18 36 -3 33 -12 -2 -34 20 -68 67 -27 38 -82 103 -121 145
-39 41 -77 85 -85 96 -13 20 -65 80 -178 204 -23 25 -40 51 -39 59 2 8 24 23
50 34 l46 19 207 -206 c154 -154 213 -206 231 -206 13 0 24 5 24 10 0 6 -4 10
-10 10 -5 0 -77 66 -158 148 -81 81 -173 169 -205 197 -31 27 -54 51 -52 54 5
5 234 84 295 102 33 10 83 30 160 67 19 9 49 26 67 39 17 13 36 23 42 23 6 0
15 9 21 20 12 23 109 82 122 74 4 -3 8 -29 8 -57 0 -37 3 -48 10 -37 5 8 10
36 10 61 0 77 49 109 64 42 15 -69 44 -496 55 -838 5 -143 10 -262 11 -265 1
-3 5 4 9 15 12 28 6 495 -7 580 -9 62 -15 147 -13 182 1 6 16 14 34 16 l32 4
-32 1 c-37 2 -41 13 -45 142 l-3 85 193 3 c123 1 191 6 187 12 -4 6 -80 10
-188 10 -100 0 -188 4 -196 9 -8 5 -16 33 -19 62 -3 30 -10 57 -16 61 -19 13
-64 9 -70 -7 -7 -19 -39 -19 -77 1 -17 8 -40 14 -52 13 -29 -3 -77 11 -77 22
0 5 -15 10 -32 10 -30 2 -30 2 -6 6 15 2 42 0 60 -5 41 -11 115 -4 83 9 -11 4
-35 8 -53 8 -18 1 -40 5 -50 10 -19 10 -147 31 -187 31 -42 0 -28 16 48 54 39
20 90 48 112 61 22 13 54 31 70 40 17 9 46 24 66 35 36 19 87 65 122 108 18
23 24 97 8 106 -9 6 -16 35 -33 141 -6 33 -11 151 -13 263 -2 111 -6 209 -9
217 -3 9 -17 20 -30 25 -18 7 -25 18 -28 42 l-3 33 -108 11 c-59 6 -109 13
-111 15 -7 6 -25 266 -24 341 0 47 -5 75 -16 93 -19 29 -30 30 -69 9z m63 -65
c0 -28 -19 -33 -29 -7 -8 18 -10 19 -10 5 -1 -24 -21 -11 -21 13 0 21 29 31
48 17 6 -5 12 -18 12 -28z m-52 -426 c-10 -2 -26 -2 -35 0 -10 3 -2 5 17 5 19
0 27 -2 18 -5z m299 -163 c6 -80 9 -153 7 -162 -3 -10 -1 -25 4 -34 6 -10 5
-32 -1 -56 -7 -28 -6 -56 3 -96 7 -31 12 -89 11 -129 -2 -46 4 -92 15 -128 16
-49 16 -57 3 -70 -16 -16 -102 -35 -160 -35 -21 0 -63 -7 -94 -14 -30 -8 -95
-18 -143 -21 -48 -4 -123 -12 -167 -20 -44 -7 -114 -19 -155 -25 -41 -7 -91
-16 -110 -21 -109 -27 -230 -20 -230 13 0 6 -6 19 -14 27 -14 15 -30 100 -57
296 -6 50 -18 115 -26 145 -8 30 -16 102 -19 160 -2 58 -6 123 -9 146 -6 58 8
70 85 78 36 3 97 11 135 16 39 6 111 15 160 20 50 6 119 15 155 21 36 5 175
14 309 19 134 5 246 12 249 15 3 3 13 4 22 3 12 -3 17 -32 27 -148z m-1187 0
c0 -6 -12 -16 -27 -23 -16 -6 -30 -15 -33 -18 -10 -14 -112 -80 -116 -76 -7 7
86 85 119 100 15 6 27 15 27 19 0 5 7 8 15 8 8 0 15 -5 15 -10z m-10 -69 c0
-5 -3 -17 -6 -26 -5 -12 -9 -14 -14 -4 -5 7 -6 18 -3 26 6 15 23 18 23 4z
m-20 -65 c0 -8 -4 -18 -10 -21 -5 -3 -10 3 -10 14 0 12 5 21 10 21 6 0 10 -6
10 -14z m-121 -70 c-7 -14 -16 -26 -21 -26 -4 0 -8 -9 -8 -19 0 -11 -4 -23
-10 -26 -5 -3 -10 -15 -10 -26 0 -10 -4 -19 -10 -19 -5 0 -10 9 -10 20 0 11 4
20 10 20 5 0 15 19 22 43 7 23 19 47 28 54 21 16 23 10 9 -21z m88 12 c-3 -8
-6 -5 -6 6 -1 11 2 17 5 13 3 -3 4 -12 1 -19z m45 -66 c-7 -26 -19 -60 -27
-77 -34 -73 -63 -142 -69 -167 -3 -16 -11 -28 -16 -28 -15 0 -12 46 4 59 8 7
17 28 21 49 4 20 13 48 20 62 14 25 42 106 52 148 4 17 9 20 16 13 8 -8 8 -25
-1 -59z m-111 20 c-6 -2 -11 -14 -11 -27 0 -13 -4 -27 -10 -30 -5 -3 -10 -15
-10 -26 0 -10 -4 -19 -10 -19 -5 0 -10 -8 -10 -19 0 -17 -45 -134 -68 -176 -6
-11 -14 -29 -18 -40 -7 -19 -8 -19 -12 4 -2 13 1 28 7 34 6 6 11 18 11 27 0 9
9 35 20 58 11 22 20 48 20 57 0 8 4 15 8 15 5 0 15 19 22 43 8 23 20 46 27 50
7 4 13 14 13 21 0 6 6 24 13 39 9 21 13 23 16 10 2 -10 -2 -19 -8 -21z m59 13
c0 -3 -9 -22 -20 -42 -22 -41 -26 -34 -9 16 6 17 15 31 20 31 5 0 9 -2 9 -5z
m-150 -25 c0 -11 -4 -20 -10 -20 -5 0 -10 -9 -10 -20 0 -11 -4 -20 -10 -20 -5
0 -10 -10 -10 -22 0 -24 -39 -83 -40 -60 0 7 9 30 20 52 11 22 20 46 20 55 0
8 5 15 10 15 6 0 10 9 10 20 0 11 5 20 10 20 6 0 10 -9 10 -20z m234 -56 c12
-32 8 -45 -65 -200 -10 -23 -19 -47 -19 -55 0 -8 -7 -23 -15 -33 -8 -11 -15
-27 -15 -35 0 -8 -8 -33 -18 -55 -10 -23 -32 -74 -48 -115 -31 -76 -54 -102
-54 -59 0 13 4 28 9 34 4 5 14 31 21 57 7 27 21 65 32 85 10 20 18 43 18 52 0
9 7 25 15 36 8 10 15 26 15 34 0 9 9 33 20 55 11 22 20 43 20 47 0 5 9 27 19
51 11 23 24 59 31 80 12 39 24 47 34 21z m-136 -46 c-8 -13 -18 -41 -22 -63
-4 -22 -14 -51 -21 -65 -7 -14 -19 -41 -25 -60 -27 -79 -60 -153 -67 -147 -2
3 0 14 5 24 5 10 15 42 22 71 7 29 21 70 31 92 10 21 19 45 19 53 0 8 7 20 15
27 8 7 15 18 15 24 0 6 5 28 11 50 7 27 14 35 21 28 8 -8 7 -18 -4 -34z m-123
-47 c3 -5 1 -12 -5 -16 -5 -3 -10 1 -10 9 0 18 6 21 15 7z m291 -36 c3 -8 -4
-26 -15 -41 -12 -15 -21 -31 -21 -37 0 -11 -29 -79 -55 -127 -7 -14 -16 -41
-20 -60 -4 -19 -12 -41 -16 -50 -9 -15 -35 -87 -65 -182 -15 -49 -34 -64 -34
-28 0 24 48 172 61 185 5 5 9 18 9 30 0 11 9 38 20 60 11 22 20 43 20 48 0 4
11 33 25 63 14 30 25 57 25 60 0 3 9 25 20 50 21 45 36 55 46 29z m-346 -4 c0
-6 -4 -13 -10 -16 -5 -3 -10 1 -10 9 0 9 5 16 10 16 6 0 10 -4 10 -9z m157
-133 c-3 -7 -5 -2 -5 12 0 14 2 19 5 13 2 -7 2 -19 0 -25z m198 -5 c-4 -21
-10 -42 -15 -48 -4 -5 -16 -34 -25 -62 -10 -29 -20 -51 -24 -48 -10 6 -1 65
10 65 5 0 9 11 9 25 0 13 4 34 9 47 5 13 12 31 15 41 11 35 28 18 21 -20z
m-222 -52 c-5 -3 -15 -27 -23 -53 -13 -49 -30 -64 -30 -28 0 11 4 20 9 20 5 0
12 11 15 25 3 13 11 37 18 52 9 24 12 25 16 9 2 -10 0 -21 -5 -25z m1471 25
c-5 -13 -44 -30 -44 -19 0 7 33 32 42 33 4 0 5 -6 2 -14z m-1221 -73 c-6 -15
-16 -48 -23 -73 -24 -86 -91 -230 -107 -230 -14 0 -18 26 -5 34 5 3 17 35 27
71 9 36 21 68 26 71 5 3 9 13 9 23 0 9 9 36 20 59 11 22 20 47 20 55 0 20 22
39 33 28 6 -6 6 -20 0 -38z m-363 -34 c0 -16 5 -38 12 -49 16 -26 0 -40 -18
-16 -16 23 -20 111 -4 101 6 -3 10 -19 10 -36z m246 -90 c-12 -28 -15 -30 -15
-12 -1 12 4 25 9 28 6 3 11 16 11 28 1 15 3 17 6 6 2 -9 -3 -32 -11 -50z m-31
-66 c-9 -41 -45 -113 -56 -113 -11 0 -12 13 0 26 5 5 14 26 21 47 6 20 16 37
21 37 5 0 9 7 9 15 0 8 3 15 6 15 3 0 3 -12 -1 -27z m195 1 c0 -8 -5 -12 -10
-9 -6 4 -8 11 -5 16 9 14 15 11 15 -7z m901 -165 c35 -11 68 -25 74 -30 5 -5
19 -9 31 -9 12 0 27 -6 34 -14 9 -12 3 -19 -37 -37 -41 -18 -52 -20 -78 -10
-16 7 -58 21 -93 32 -52 17 -62 23 -56 37 4 9 7 25 8 35 1 23 37 22 117 -4z
m-1231 -44 c0 -14 -4 -25 -10 -25 -5 0 -10 11 -10 25 0 14 5 25 10 25 6 0 10
-11 10 -25z m58 13 c-2 -6 -10 -14 -16 -16 -7 -2 -10 2 -6 12 7 18 28 22 22 4z
m1082 -59 c0 -5 15 -9 33 -9 34 -1 73 -23 64 -37 -6 -9 -52 -33 -157 -81 -30
-13 -68 -31 -83 -40 -44 -22 -53 -1 -17 36 16 18 30 39 30 47 0 8 7 15 15 15
9 0 18 7 21 15 4 8 16 15 28 16 17 0 18 2 5 7 -12 5 -14 13 -9 28 7 17 15 20
39 16 17 -2 31 -8 31 -13z m-1065 -289 c3 -5 1 -10 -4 -10 -6 0 -11 5 -11 10
0 6 2 10 4 10 3 0 8 -4 11 -10z m173 -19 c16 -1 22 -7 22 -25 0 -47 -49 -60
-51 -13 -1 17 -3 15 -8 -7 -9 -41 -31 -46 -31 -7 0 19 -6 34 -15 37 -28 11
-15 23 23 19 20 -1 47 -3 60 -4z m72 -28 c0 -10 -5 -25 -10 -33 -14 -22 -30 0
-19 28 10 26 29 29 29 5z m69 -20 c37 -21 42 -60 11 -86 -19 -16 -21 -16 -27
0 -4 9 -1 19 5 21 7 2 12 15 12 29 0 25 -1 25 -25 9 -33 -22 -35 -21 -35 14 0
35 14 38 59 13z m111 -43 c0 -15 -41 -99 -51 -106 -15 -9 -22 25 -9 41 7 8 10
28 8 45 -4 27 -2 30 24 30 15 0 28 -5 28 -10z m-188 -57 c51 -46 93 -198 69
-250 -12 -27 -13 -27 -27 -8 -8 11 -18 38 -22 60 l-7 40 -5 -48 c-6 -55 -22
-63 -31 -15 -8 49 -32 88 -84 137 -27 26 -44 50 -40 58 3 8 5 19 5 24 0 32
107 34 142 2z m188 -35 c0 -7 -5 -20 -10 -28 -8 -12 -10 -9 -10 13 0 15 5 27
10 27 6 0 10 -6 10 -12z m-52 -162 c3 -20 0 -27 -10 -24 -7 3 -14 17 -16 32
-3 20 0 27 10 24 7 -3 14 -17 16 -32z m72 -161 c0 -23 4 -45 9 -50 5 -6 12
-66 15 -135 3 -69 8 -141 11 -161 6 -29 2 -43 -20 -75 -14 -21 -34 -55 -43
-74 -9 -19 -18 -37 -21 -40 -4 -3 -21 -36 -40 -75 -19 -38 -49 -94 -67 -123
-19 -29 -34 -58 -34 -64 0 -9 -3 -9 -12 0 -9 9 -9 15 0 24 7 7 12 18 12 25 0
13 129 283 140 293 13 12 58 115 54 122 -11 18 -22 4 -68 -84 -27 -51 -52 -97
-56 -103 -4 -5 -35 -64 -69 -130 -68 -132 -87 -162 -98 -152 -4 4 -1 13 5 19
7 7 12 19 12 28 0 14 22 62 67 145 19 35 165 339 175 365 6 14 14 33 19 42 12
24 11 48 -1 48 -5 0 -10 10 -10 22 0 14 -3 19 -10 12 -14 -14 -219 -413 -255
-496 -34 -80 -53 -153 -43 -165 13 -16 -5 -17 -33 -3 -17 10 -18 13 -5 33 8
12 30 70 49 128 19 58 55 146 80 195 25 49 75 152 112 228 61 129 64 141 53
168 -15 32 -31 32 -36 0 -2 -12 -7 -22 -12 -22 -5 0 -11 -10 -13 -22 -4 -22
-4 -21 -5 2 -1 14 9 48 22 75 20 42 25 47 31 30 26 -78 33 -79 54 -6 15 52 31
40 31 -24z m-40 24 c0 -5 -4 -9 -10 -9 -5 0 -10 7 -10 16 0 8 5 12 10 9 6 -3
10 -10 10 -16z m-130 -92 c0 -23 -48 -109 -54 -98 -14 22 22 111 44 111 6 0
10 -6 10 -13z m77 -9 c-3 -8 -6 -5 -6 6 -1 11 2 17 5 13 3 -3 4 -12 1 -19z
m-57 -44 c0 -14 -4 -23 -9 -20 -5 3 -7 15 -4 26 7 28 13 25 13 -6z m-253 -26
c-3 -8 -6 -5 -6 6 -1 11 2 17 5 13 3 -3 4 -12 1 -19z m-52 -243 c4 -137 10
-267 15 -288 10 -48 -3 -55 -56 -28 -22 10 -61 29 -89 40 -27 12 -57 26 -65
31 -8 6 -26 15 -40 20 -14 6 -32 15 -40 20 -8 6 -24 14 -35 19 -11 5 -33 21
-50 35 -16 14 -33 26 -37 26 -5 0 -8 7 -8 15 0 8 3 15 8 15 4 0 53 44 108 98
155 150 273 256 279 250 2 -2 6 -115 10 -253z m285 225 c0 -11 -4 -20 -10 -20
-5 0 -10 -9 -10 -20 0 -11 -4 -20 -8 -20 -5 0 -14 -16 -22 -35 -7 -19 -17 -32
-21 -29 -4 2 5 30 22 60 16 31 29 62 29 70 0 8 5 14 10 14 6 0 10 -9 10 -20z
m100 -122 c-6 -13 -13 -31 -16 -40 -4 -10 -10 -18 -15 -18 -5 0 -9 -7 -9 -17
0 -9 -3 -13 -7 -10 -3 4 -1 19 7 35 7 15 17 37 23 50 6 12 14 22 18 22 5 0 4
-10 -1 -22z m1040 -216 c0 -11 -88 -57 -95 -50 -7 6 66 57 83 57 6 1 12 -3 12
-7z m-970 -11 c0 -6 -4 -13 -10 -16 -5 -3 -10 1 -10 9 0 9 5 16 10 16 6 0 10
-4 10 -9z m20 -83 c-13 -24 -34 -64 -47 -90 -14 -27 -29 -48 -34 -48 -5 0 -9
-8 -9 -17 0 -9 -3 -13 -7 -9 -4 3 8 39 27 79 18 39 38 83 44 97 17 41 28 52
39 41 8 -8 3 -24 -13 -53z m-40 44 c0 -4 -18 -45 -40 -90 -22 -44 -40 -84 -40
-87 0 -3 -9 -26 -20 -51 -11 -24 -23 -58 -27 -74 -3 -20 -12 -30 -23 -30 -34
0 -29 31 18 114 26 45 63 115 82 154 31 63 50 88 50 64z m41 -249 c-31 -63
-61 -97 -61 -71 0 8 4 18 9 24 11 12 51 126 51 146 0 9 6 18 13 21 25 8 19
-60 -12 -120z m-61 13 c0 -7 -7 -27 -15 -42 -8 -16 -15 -39 -15 -51 0 -16 -6
-23 -20 -23 -26 0 -25 2 7 72 27 56 43 73 43 44z m41 -129 c-16 -16 -25 -1
-10 16 8 8 16 11 18 5 2 -5 -2 -15 -8 -21z m-88 -38 c17 -19 20 -19 41 -6 18
12 27 13 52 2 30 -12 37 -23 74 -117 l22 -57 -22 -58 c-12 -32 -26 -75 -32
-95 -12 -44 -25 -48 -38 -12 -13 33 -13 84 0 84 6 0 10 -7 10 -15 0 -8 5 -15
10 -15 6 0 8 11 4 27 -9 39 -14 45 -30 39 -7 -3 -16 -1 -19 5 -4 5 1 12 9 15
21 8 20 16 -5 45 -21 23 -21 23 -15 2 13 -40 -11 -33 -35 12 -22 41 -52 65
-83 65 -7 0 -23 11 -36 25 -22 23 -22 25 -6 50 21 32 73 35 99 4z m61 -286 c3
-10 8 -35 12 -55 5 -31 3 -38 -10 -38 -16 0 -18 9 -21 78 -1 34 10 43 19 15z"/>
<path d="M1375 3266 c-4 -40 -4 -82 -1 -92 4 -11 53 -55 109 -100 89 -70 109
-82 153 -88 51 -6 51 -6 78 33 24 34 27 46 24 107 -3 67 -3 68 -34 75 -34 6
-174 79 -174 90 0 4 -23 12 -50 19 -28 7 -53 16 -56 21 -3 5 -14 9 -24 9 -16
0 -19 -11 -25 -74z m99 2 c22 -6 46 -15 52 -20 25 -19 111 -60 149 -72 47 -14
54 -37 32 -100 -15 -44 -37 -59 -37 -26 0 27 -17 60 -31 60 -6 0 -34 18 -61
40 -57 45 -80 49 -102 19 l-15 -21 -30 21 c-25 18 -31 29 -31 60 0 56 6 59 74
39z m123 -178 c6 0 13 -7 17 -15 9 -25 -29 -18 -66 12 -18 15 -35 28 -37 29
-1 2 0 7 4 13 4 7 18 2 39 -14 18 -14 38 -25 43 -25z"/>
<path d="M940 3239 c-24 -11 -47 -24 -50 -28 -3 -5 -36 -23 -75 -41 -75 -35
-125 -74 -125 -99 0 -8 8 -33 19 -55 10 -23 24 -61 31 -86 26 -97 51 -95 177
17 123 109 115 100 142 150 23 40 23 44 10 102 -13 61 -13 61 -49 60 -19 0
-55 -9 -80 -20z m85 -46 c8 -18 10 -33 5 -33 -6 0 -10 5 -10 10 0 16 -28 12
-49 -7 -10 -10 -33 -29 -52 -43 -85 -64 -84 -62 -69 -114 12 -43 11 -50 -7
-74 -27 -36 -41 -38 -54 -5 -5 15 -16 41 -23 58 -24 56 -34 93 -27 102 8 11
49 37 115 73 152 83 150 82 171 33z m-65 -126 c-25 -28 -35 -33 -45 -24 -10
10 -5 19 23 45 47 45 66 27 22 -21z"/>
<path d="M1417 2913 c-10 -10 -8 -85 3 -145 21 -105 18 -100 48 -96 33 4 39
31 23 104 -7 28 -14 64 -17 79 -10 54 -36 80 -57 58z"/>
<path d="M1531 2911 c-12 -8 -13 -14 -3 -36 7 -14 12 -40 13 -58 0 -43 31
-122 47 -121 7 1 22 2 33 3 15 1 20 6 16 19 -26 85 -43 162 -38 167 7 8 -28
35 -43 35 -6 0 -17 -4 -25 -9z"/>
<path d="M1256 2854 c3 -25 9 -80 13 -122 7 -83 14 -92 63 -73 l25 9 -14 89
c-20 119 -31 143 -66 143 -28 0 -28 -1 -21 -46z"/>
<path d="M1135 2882 c-6 -4 -11 -45 -13 -92 -2 -47 -8 -100 -14 -118 -14 -45
0 -58 44 -46 l33 10 -3 79 c-4 139 -18 189 -47 167z"/>
<path d="M1005 2858 c-2 -7 -6 -53 -10 -103 -3 -49 -9 -107 -12 -127 -5 -35
-4 -38 18 -38 51 0 54 10 51 142 -2 68 -6 126 -9 131 -7 12 -33 8 -38 -5z"/>
<path d="M3960 3680 c-27 -30 -34 -44 -28 -60 10 -27 15 -25 34 13 9 17 21 35
26 38 5 4 8 16 6 27 -3 19 -7 17 -38 -18z"/>
<path d="M3730 3684 c0 -10 7 -28 15 -38 13 -17 15 -17 21 -3 3 9 -3 25 -15
38 -20 21 -21 22 -21 3z"/>
<path d="M3750 3544 c0 -29 21 -54 46 -54 16 0 15 3 -4 20 -12 12 -22 30 -22
40 0 11 -4 20 -10 20 -5 0 -10 -12 -10 -26z"/>
<path d="M1395 3530 c-4 -6 -11 -8 -16 -4 -5 3 -24 2 -42 -2 -28 -6 -29 -8
-12 -14 29 -11 85 0 85 16 0 16 -6 18 -15 4z"/>
<path d="M3896 3532 c-5 -8 -17 -11 -31 -8 -13 3 -26 2 -29 -3 -8 -12 20 -22
39 -15 17 7 19 -8 6 -34 -5 -9 -15 -37 -21 -62 -7 -25 -14 -51 -16 -59 -3 -10
-16 -12 -49 -9 -31 4 -48 1 -56 -8 -19 -23 -31 -16 -27 18 2 17 -2 33 -7 35
-18 6 -51 -49 -58 -94 -8 -50 4 -63 27 -28 24 36 40 32 32 -9 -6 -29 -3 -37
16 -50 12 -9 31 -16 41 -16 15 0 18 -5 13 -22 -3 -13 -6 -31 -6 -41 0 -22 -29
-35 -40 -17 -12 20 -29 3 -36 -38 -4 -20 -11 -43 -17 -49 -7 -9 -5 -13 6 -13
9 0 31 -9 51 -20 l34 -21 5 58 c6 77 16 113 37 135 15 17 22 17 61 7 76 -20
132 -23 127 -8 -3 9 -36 18 -89 26 -85 12 -157 30 -173 44 -10 9 11 70 28 81
6 4 32 8 59 8 45 0 48 2 54 30 3 17 10 33 14 36 5 3 9 16 9 29 0 18 4 23 15
19 14 -6 20 6 16 30 -1 4 3 14 9 21 8 10 6 15 -9 20 -11 3 -21 14 -23 23 -3
13 -5 14 -12 4z"/>
<path d="M1438 3513 c7 -3 16 -2 19 1 4 3 -2 6 -13 5 -11 0 -14 -3 -6 -6z"/>
<path d="M3956 3481 c-3 -5 1 -12 10 -15 25 -10 34 -7 34 9 0 16 -35 21 -44 6z"/>
<path d="M3828 3468 c9 -9 15 -9 24 0 9 9 7 12 -12 12 -19 0 -21 -3 -12 -12z"/>
<path d="M2940 3309 c-13 -6 -36 -7 -50 -4 -24 6 -25 6 -4 -9 11 -8 33 -18 47
-21 15 -4 27 -11 27 -16 0 -5 11 -15 25 -21 32 -14 32 -28 -3 -61 -32 -31 -44
-33 -62 -12 -16 19 -91 17 -98 -2 -2 -9 11 -13 45 -13 35 0 44 -3 33 -10 -8
-5 -26 -10 -40 -11 -18 -1 -13 -4 18 -12 30 -7 42 -15 42 -28 0 -10 -4 -21
-10 -24 -5 -3 -10 -15 -10 -25 0 -45 -111 -120 -178 -120 -11 0 -21 -13 -28
-35 -11 -34 -10 -37 17 -50 15 -8 44 -15 63 -15 26 0 36 -5 41 -20 4 -12 1
-27 -5 -35 -7 -8 -10 -20 -7 -27 3 -8 9 -3 15 12 5 14 20 34 32 45 19 18 24
18 47 5 41 -24 65 -76 70 -155 3 -38 0 -88 -5 -110 -13 -50 -43 -157 -72 -255
-12 -41 -29 -116 -39 -167 -9 -50 -20 -95 -24 -99 -4 -4 -7 -17 -7 -29 0 -27
-22 -73 -37 -80 -17 -6 -16 24 2 55 19 33 19 130 0 166 -17 33 -50 53 -87 54
-27 0 -27 0 -10 29 15 27 15 33 -1 85 -14 43 -15 60 -7 76 6 12 9 29 7 38 -3
12 -5 10 -6 -6 -1 -14 -6 -22 -13 -19 -10 3 -13 37 -14 123 -1 185 -3 211 -14
194 -5 -8 -10 -38 -10 -65 0 -49 -1 -50 -36 -61 -48 -16 -72 -7 -89 30 -11 26
-13 28 -14 9 -1 -12 4 -33 10 -47 9 -19 9 -36 0 -68 -13 -47 -21 -112 -25
-200 -2 -46 -7 -61 -27 -77 -20 -16 -22 -22 -11 -33 11 -11 19 -9 50 8 35 21
37 25 45 90 12 109 20 139 37 139 11 0 17 -15 21 -55 7 -68 24 -110 44 -110
18 0 20 -21 3 -38 -10 -10 -10 -17 -1 -31 14 -22 -2 -33 -35 -24 -14 3 -22 -1
-27 -17 -4 -12 -16 -25 -27 -29 -19 -7 -21 -15 -19 -86 2 -54 9 -92 23 -122
11 -24 18 -47 14 -50 -6 -6 -225 -13 -379 -13 -27 0 -46 -4 -43 -8 8 -13 413
-16 421 -3 3 6 31 11 62 11 44 0 62 5 79 21 19 18 25 19 43 7 23 -14 49 -4 61
23 4 8 12 24 18 36 7 13 12 36 12 52 0 17 4 32 9 35 5 3 11 18 14 33 3 16 15
62 26 103 12 41 28 104 37 140 9 36 21 81 28 100 23 61 55 174 61 210 8 49 35
165 52 225 8 28 24 91 35 140 46 213 45 242 -11 294 -54 50 -96 62 -151 40z
m146 -124 c-2 -27 -5 -52 -6 -55 -2 -6 -28 110 -29 129 -1 10 4 9 20 -5 17
-15 19 -27 15 -69z m-62 -146 c-15 -66 -24 -86 -57 -120 -49 -51 -135 -93
-155 -77 -11 10 -8 14 14 26 16 8 34 20 40 26 7 6 26 22 43 35 17 13 31 29 31
36 0 7 7 15 15 19 16 6 21 36 6 36 -6 0 -18 -13 -28 -30 -9 -16 -20 -30 -23
-30 -3 0 -16 -10 -30 -23 -39 -36 -92 -65 -125 -69 -48 -5 -44 16 5 32 84 28
158 88 181 147 5 15 14 21 24 17 12 -5 15 2 15 32 0 21 7 46 17 56 16 18 17
18 31 -8 12 -23 12 -37 -4 -105z m-288 -955 c17 -40 15 -95 -3 -101 -17 -6
-31 25 -39 85 -6 45 -4 52 10 52 10 0 23 -15 32 -36z m-116 -46 c0 -11 13 -32
29 -47 26 -24 29 -33 24 -69 -9 -69 -53 -84 -53 -19 0 18 -6 41 -14 52 -18 28
-26 76 -15 98 12 22 29 13 29 -15z"/>
<path d="M2785 3292 c-6 -5 -29 -15 -52 -22 -24 -7 -43 -17 -43 -22 0 -4 -7
-8 -14 -8 -18 0 -66 -61 -66 -83 0 -9 -4 -18 -9 -21 -5 -3 -11 -18 -14 -33 -3
-16 -8 -38 -12 -50 -4 -13 -3 -23 2 -23 5 0 20 30 33 68 13 37 32 78 42 92 23
29 98 68 150 76 21 4 43 13 49 20 9 11 5 14 -23 14 -19 0 -38 -4 -43 -8z"/>
<path d="M3827 3133 c-4 -3 -7 -17 -7 -30 0 -22 0 -23 35 -6 43 20 46 43 7 43
-16 0 -32 -3 -35 -7z"/>
<path d="M2723 3107 c-38 -38 -94 -127 -87 -138 3 -6 18 9 32 33 14 23 40 62
59 86 36 44 34 56 -4 19z"/>
<path d="M2749 3063 c-8 -16 -22 -34 -31 -41 -10 -7 -18 -19 -18 -25 0 -7 -13
-28 -30 -47 -28 -32 -31 -34 -44 -17 -21 27 -35 20 -38 -20 -3 -34 -6 -38 -28
-36 -14 1 -18 0 -7 -3 9 -3 17 -9 17 -13 0 -16 -13 -20 -32 -10 -17 9 -18 8
-9 -9 6 -11 17 -22 26 -26 8 -3 15 -16 15 -30 0 -15 11 -33 26 -45 33 -26 44
-26 44 -3 0 10 7 27 15 38 18 24 21 64 3 46 -16 -16 -39 4 -31 26 4 9 22 38
40 64 18 26 33 52 33 58 0 6 13 13 30 16 25 6 28 10 24 33 -4 18 0 32 10 40
17 14 21 31 8 31 -5 0 -15 -12 -23 -27z"/>
<path d="M2451 3044 c0 -11 3 -14 6 -6 3 7 2 16 -1 19 -3 4 -6 -2 -5 -13z"/>
<path d="M3800 3003 c-11 -14 -20 -33 -20 -42 0 -9 3 -12 8 -6 4 6 19 16 35
24 30 16 35 36 12 44 -8 4 -23 -5 -35 -20z"/>
<path d="M2410 2987 c0 -19 4 -25 15 -21 8 4 15 10 15 14 0 4 -7 13 -15 20
-13 11 -15 8 -15 -13z"/>
<path d="M2516 2971 c-4 -7 -5 -15 -2 -18 9 -9 19 4 14 18 -4 11 -6 11 -12 0z"/>
<path d="M3875 2960 c-3 -5 1 -10 10 -10 9 0 13 5 10 10 -3 6 -8 10 -10 10 -2
0 -7 -4 -10 -10z"/>
<path d="M3730 2935 c0 -28 -3 -30 -30 -13 -15 10 -23 9 -39 -6 -15 -14 -18
-22 -10 -32 7 -9 6 -15 -3 -21 -32 -20 -57 -105 -38 -128 7 -9 29 -15 51 -15
38 0 39 -1 39 -34 0 -19 4 -37 9 -40 21 -13 29 71 10 106 -8 14 -8 23 0 31 6
6 11 23 11 38 0 14 5 41 11 58 l12 33 61 -7 c33 -4 77 -11 96 -16 53 -14 90
-11 90 6 0 10 -10 15 -34 15 -19 0 -46 4 -59 9 -14 5 -53 11 -87 13 -39 2 -64
8 -67 15 -9 22 -23 14 -23 -12z m-30 -85 c0 -11 -7 -20 -15 -20 -13 0 -13 3
-3 20 7 11 14 20 15 20 2 0 3 -9 3 -20z m-20 -100 c0 -5 -6 -10 -14 -10 -8 0
-18 5 -21 10 -3 6 3 10 14 10 12 0 21 -4 21 -10z"/>
<path d="M2430 2920 c0 -5 5 -10 11 -10 5 0 7 5 4 10 -3 6 -8 10 -11 10 -2 0
-4 -4 -4 -10z"/>
<path d="M2450 2871 c0 -12 5 -21 10 -21 6 0 10 6 10 14 0 8 -4 18 -10 21 -5
3 -10 -3 -10 -14z"/>
<path d="M3942 2838 c-6 -6 -12 -19 -12 -27 0 -12 -3 -12 -12 -3 -14 14 -98
16 -98 3 0 -5 15 -8 33 -7 22 1 32 -3 32 -14 0 -9 -9 -15 -23 -14 -18 0 -21
-3 -16 -19 5 -14 2 -18 -12 -15 -10 2 -21 14 -24 28 -6 27 -14 20 -23 -21 -5
-21 -1 -30 23 -47 35 -26 47 -27 90 -5 24 12 35 13 38 5 5 -17 32 -15 32 3 0
8 -7 15 -15 15 -8 0 -16 7 -16 15 -1 8 -2 21 -3 28 -1 7 11 12 29 12 28 0 30
3 30 35 0 27 -4 36 -20 38 -11 1 -26 -3 -33 -10z"/>
<path d="M2491 2754 c0 -11 3 -14 6 -6 3 7 2 16 -1 19 -3 4 -6 -2 -5 -13z"/>
<path d="M2780 2696 c0 -14 5 -26 10 -26 6 0 10 9 10 19 0 11 -4 23 -10 26 -6
4 -10 -5 -10 -19z"/>
<path d="M3784 2659 c-12 -19 13 -31 80 -38 51 -5 66 -4 66 6 0 13 -8 14 -79
17 -19 1 -36 7 -39 14 -5 15 -19 16 -28 1z"/>
<path d="M2767 2654 c-4 -4 -7 -17 -7 -28 1 -19 1 -20 11 -3 11 19 8 43 -4 31z"/>
<path d="M3988 2635 c-5 -11 -10 -44 -12 -73 -5 -58 -21 -86 -44 -77 -10 4
-12 0 -8 -12 4 -9 1 -20 -6 -24 -7 -4 -9 -11 -5 -15 3 -4 25 11 47 34 l41 41
-3 73 c-2 46 -6 66 -10 53z"/>
<path d="M3690 2613 c0 -10 9 -29 20 -43 11 -14 20 -35 20 -47 0 -35 17 -27
24 11 5 28 2 38 -23 65 -33 35 -41 38 -41 14z"/>
<path d="M2740 2583 c0 -12 -4 -25 -10 -28 -5 -3 -10 -18 -9 -33 l1 -27 8 28
c5 16 14 35 21 43 9 11 9 18 1 26 -9 9 -12 7 -12 -9z"/>
<path d="M3875 2550 l-40 -7 40 -7 c51 -10 59 -10 63 2 4 14 -18 18 -63 12z"/>
<path d="M2702 2465 c0 -16 2 -22 5 -12 2 9 2 23 0 30 -3 6 -5 -1 -5 -18z"/>
<path d="M3730 2338 l0 -74 -82 -77 c-46 -42 -98 -89 -115 -105 -27 -24 -30
-31 -17 -36 21 -8 24 -8 24 4 0 15 49 57 83 71 15 6 27 17 27 23 0 7 10 21 23
33 45 41 137 143 128 143 -5 0 -17 -7 -26 -16 -21 -21 -23 -18 -28 44 -6 80
-17 74 -17 -10z"/>
<path d="M3975 2365 c-29 -42 -45 -82 -45 -111 0 -17 -9 -30 -30 -42 -16 -9
-30 -22 -30 -28 0 -16 51 -27 63 -15 6 6 24 11 39 11 23 0 28 4 28 26 0 14 -4
23 -10 19 -5 -3 -10 -2 -10 4 0 5 5 11 10 13 7 2 10 32 8 78 l-3 75 -20 -30z
m-35 -169 c0 -11 -19 -15 -25 -6 -3 5 1 10 9 10 9 0 16 -2 16 -4z"/>
<path d="M1810 2281 c0 -16 18 -22 45 -15 20 5 23 9 13 15 -18 12 -58 11 -58
0z"/>
<path d="M2594 2209 c-3 -6 -1 -16 5 -22 8 -8 11 -5 11 11 0 24 -5 28 -16 11z"/>
<path d="M3400 2105 c0 -14 5 -25 10 -25 6 0 10 11 10 25 0 14 -4 25 -10 25
-5 0 -10 -11 -10 -25z"/>
<path d="M2435 2110 c-3 -5 3 -10 14 -10 11 0 23 5 26 10 3 6 -3 10 -14 10
-11 0 -23 -4 -26 -10z"/>
<path d="M3664 2111 c4 -6 13 -11 19 -11 7 -1 25 -12 42 -25 22 -18 29 -32 29
-60 0 -19 4 -34 9 -32 10 3 32 42 41 70 5 17 13 18 59 12 28 -4 56 -11 62 -16
12 -12 65 -12 65 0 0 8 -22 14 -107 27 -21 3 -47 9 -58 14 -11 5 -37 11 -57
14 -21 3 -54 9 -74 12 -26 5 -35 3 -30 -5z"/>
<path d="M3445 2061 c-3 -5 -1 -12 4 -15 5 -3 11 1 15 9 6 16 -9 21 -19 6z"/>
<path d="M3665 2009 c-4 -6 1 -16 11 -24 24 -17 42 -2 24 20 -15 18 -26 19
-35 4z"/>
<path d="M1853 1930 c0 -41 2 -58 4 -37 2 20 2 54 0 75 -2 20 -4 3 -4 -38z"/>
<path d="M3592 1940 c13 -16 28 -29 35 -29 21 -1 4 23 -28 41 l-30 18 23 -30z"/>
<path d="M3698 1949 c-22 -12 -23 -54 -3 -89 15 -27 19 -203 6 -250 -6 -22
-13 -25 -49 -24 -39 1 -42 -1 -42 -27 0 -38 25 -61 64 -57 25 2 32 8 34 30 2
15 16 38 32 51 19 16 30 36 32 58 2 28 10 37 38 51 49 24 73 49 59 62 -8 8
-13 7 -16 -1 -8 -21 -50 -15 -56 7 -3 13 0 20 10 20 20 0 10 47 -26 120 -27
57 -49 70 -83 49z"/>
<path d="M3611 1864 c0 -11 3 -14 6 -6 3 7 2 16 -1 19 -3 4 -6 -2 -5 -13z"/>
<path d="M3547 1853 c-10 -9 -9 -23 2 -23 5 0 11 7 15 15 5 15 -5 20 -17 8z"/>
<path d="M1832 1827 c-7 -16 -12 -43 -12 -60 -1 -18 -5 -52 -11 -77 -5 -25
-16 -88 -24 -140 -28 -177 -43 -226 -80 -254 -18 -14 -44 -28 -58 -31 -14 -4
-31 -13 -38 -21 -6 -8 -20 -14 -31 -14 -10 0 -16 -5 -13 -10 10 -17 145 19
183 48 26 20 40 79 67 282 8 58 19 130 25 160 7 30 10 75 8 100 -4 45 -4 45
-16 17z"/>
<path d="M3581 1809 c-6 -18 -11 -44 -11 -58 -1 -14 -7 -37 -15 -51 -8 -14
-14 -35 -15 -47 0 -26 -22 -30 -40 -9 -10 13 -18 9 -51 -22 -21 -20 -39 -40
-39 -44 0 -5 20 -8 44 -8 47 0 161 51 176 80 4 8 11 41 15 73 7 54 6 59 -14
64 -14 3 -21 13 -21 29 0 34 -16 30 -29 -7z"/>
<path d="M3986 1544 c-3 -9 -6 -24 -6 -34 0 -28 -57 -197 -84 -249 -13 -25
-30 -61 -38 -78 -10 -26 -19 -33 -40 -33 -15 0 -30 5 -33 10 -3 6 -17 10 -31
10 -13 0 -24 5 -24 10 0 6 -8 10 -18 10 -10 0 -22 4 -27 9 -6 5 -28 14 -50 21
-22 7 -49 19 -60 26 -11 6 -36 15 -55 19 -19 4 -42 13 -50 20 -8 7 -31 16 -50
20 l-35 6 28 -19 c16 -11 46 -25 68 -32 21 -7 39 -17 39 -22 0 -4 10 -8 23 -8
12 0 40 -9 62 -20 22 -11 47 -20 56 -20 10 0 42 -13 72 -30 30 -16 63 -30 72
-30 15 0 17 -6 11 -38 -6 -38 -31 -108 -67 -188 -11 -22 -19 -48 -19 -57 0 -9
-4 -18 -9 -21 -5 -3 -12 -18 -16 -33 -3 -16 -15 -37 -25 -48 -10 -11 -21 -31
-25 -45 -12 -44 -57 -155 -66 -165 -5 -5 -9 -18 -9 -29 0 -11 -9 -40 -21 -65
-23 -52 -115 -238 -128 -261 -16 -28 -43 -95 -56 -137 -12 -39 -12 -43 5 -43
13 0 21 13 29 47 17 67 53 144 65 140 20 -6 35 -51 42 -119 l7 -68 127 0 128
0 11 44 c6 24 14 90 17 145 6 85 10 101 23 100 30 -3 30 1 5 26 -32 32 -30 72
4 67 32 -5 47 11 68 69 17 46 20 49 32 32 13 -16 14 -13 8 26 -5 33 -3 48 10
62 13 15 18 47 22 159 3 77 8 140 13 140 5 0 8 48 7 108 -1 65 -4 95 -9 77 -4
-17 -7 26 -8 100 0 87 2 125 9 115 6 -10 10 35 10 138 0 83 -2 152 -4 152 -2
0 -7 -7 -10 -16z m-56 -384 c0 -5 -8 -10 -17 -10 -15 0 -16 2 -3 10 19 12 20
12 20 0z m15 -72 c6 -22 4 -28 -10 -28 -19 0 -19 5 11 -161 12 -64 14 -97 7
-125 l-10 -39 -7 60 c-10 89 -15 105 -30 105 -27 0 -49 -143 -50 -322 -1 -100
-8 -130 -22 -93 -6 15 9 236 27 390 10 96 27 180 40 205 4 8 10 24 14 34 7 24
21 11 30 -26z m-190 -481 c34 -72 48 -404 18 -415 -10 -3 -13 17 -14 75 -1 82
-17 154 -35 160 -14 5 -34 -48 -35 -91 0 -17 -5 -40 -10 -51 -16 -37 7 243 26
305 7 24 24 50 31 50 2 0 10 -15 19 -33z m-98 -129 c-4 -35 -10 -83 -15 -108
l-9 -45 -2 61 c0 33 2 64 6 68 8 8 9 12 11 59 1 15 5 27 8 27 4 0 4 -28 1 -62z
m-47 -280 c0 -77 -9 -116 -21 -96 -10 15 -12 102 -3 136 12 42 24 22 24 -40z
m106 -143 c-4 -14 -11 -25 -17 -25 -7 0 -8 7 -4 18 4 9 8 24 10 32 6 25 6 26
12 12 3 -7 2 -24 -1 -37z"/>
<path d="M3014 1453 c3 -4 17 -8 29 -10 17 -2 19 -1 7 7 -17 11 -47 14 -36 3z"/>
<path d="M3050 1416 c0 -13 14 -16 120 -33 19 -3 40 -11 47 -18 13 -14 101
-30 111 -21 5 5 -14 8 -35 5 -3 0 -10 6 -15 15 -5 9 -19 16 -32 16 -12 0 -26
3 -29 7 -13 12 -111 43 -139 43 -17 0 -28 -5 -28 -14z"/>
<path d="M272 1328 c-7 -7 -12 -16 -12 -21 0 -5 7 -1 16 8 9 9 14 18 12 20 -2
3 -10 -1 -16 -7z"/>
<path d="M3340 1331 c0 -10 30 -24 37 -17 3 3 2 9 -2 15 -8 13 -35 15 -35 2z"/>
<path d="M2 1040 c0 -14 2 -19 5 -12 2 6 2 18 0 25 -3 6 -5 1 -5 -13z"/>
<path d="M3922 415 c0 -16 2 -22 5 -12 2 9 2 23 0 30 -3 6 -5 -1 -5 -18z"/>
<path d="M3883 344 c-14 -21 -17 -34 -10 -34 11 0 43 58 36 64 -2 2 -14 -12
-26 -30z"/>
<path d="M573 254 c-4 -10 -13 -25 -21 -33 -7 -8 -10 -21 -6 -30 4 -9 6 -26 6
-38 -1 -18 3 -21 26 -19 23 3 27 8 25 32 -5 87 -17 122 -30 88z"/>
<path d="M3453 58 c-6 -7 -13 -23 -16 -36 -4 -19 -1 -22 24 -22 30 0 33 8 23
48 -7 25 -17 28 -31 10z"/>
<path d="M1120 20 c-19 -15 -21 -20 -9 -20 16 0 46 27 38 35 -2 2 -15 -5 -29
-15z"/>
</g>
</svg>
